<svg width="320" height="180" viewBox="0 0 320 180" xmlns="http://www.w3.org/2000/svg">

  <!-- Badge Shape (slightly adjusted curve) -->
  <path d="M160 15 
           C270 35 300 80 280 130 
           C250 165 200 175 160 170 
           C120 175 70 165 40 130 
           C20 80 50 35 160 15 Z" fill="#ffffff" stroke="#B89B5E" stroke-width="5"></path>

  <!-- Stars (same concept, different spacing/size) -->
  <polygon points="110,50 114,60 104,55 116,55 106,60" fill="#2F4858"></polygon>
  <polygon points="160,42 165,55 150,48 170,48 155,55" fill="#2F4858"></polygon>
  <polygon points="210,50 214,60 204,55 216,55 206,60" fill="#2F4858"></polygon>

  <!-- Car (front style but simplified & changed geometry) -->
  <path d="M110 85 
           Q130 65 160 65 
           Q190 65 210 85 
           L210 100 
           Q160 110 110 100 Z" fill="#2F4858"></path>

  <!-- Headlights -->
  <circle cx="125" cy="95" r="4" fill="#F2C94C"></circle>
  <circle cx="195" cy="95" r="4" fill="#F2C94C"></circle>

  <!-- Bottom Banner -->
  <rect x="75" y="115" width="170" height="28" rx="10" fill="#2F4858"></rect>

  <!-- Text -->
  <text x="160" y="134" font-family="Tahoma, sans-serif" font-size="15" fill="#ffffff" text-anchor="middle">
    Indian Bazar
  </text>

</svg>